<svg width="129" height="178" viewBox="0 0 129 178" fill="none" xmlns="http://www.w3.org/2000/svg">
<path d="M125.55 59.528H119.809V49.2849C119.809 47.9206 118.703 46.8146 117.339 46.8146H113.666V36.5715C113.666 35.2072 112.56 34.1012 111.195 34.1012H100.342V15.1319C100.342 13.7675 99.2357 12.6616 97.8713 12.6616H83.9319V10.9019C83.9319 10.0282 83.4701 9.21945 82.718 8.77518L69.2909 0.843564C68.9105 0.618575 68.4764 0.5 68.0344 0.5H60.9655C60.5236 0.5 60.0895 0.618575 59.7091 0.843564L46.282 8.77518C45.5299 9.21945 45.0681 10.0282 45.0681 10.9019V12.6616H31.1283C29.7639 12.6616 28.658 13.7675 28.658 15.1319V34.1012H17.8046C16.4402 34.1012 15.3343 35.2072 15.3343 36.5715V46.8146H11.6607C10.2963 46.8146 9.1904 47.9206 9.1904 49.2849V59.528H3.44976C2.08539 59.528 0.979446 60.6339 0.979446 61.9983C0.979446 63.3627 2.08539 64.4686 3.44976 64.4686H8.22583V175.03C8.22583 176.394 9.33177 177.5 10.6961 177.5H41.8955C43.2598 177.5 44.3658 176.394 44.3658 175.03V108.054H45.2464C46.6107 108.054 47.7167 106.948 47.7167 105.583C47.7167 104.219 46.6107 103.113 45.2464 103.113H44.3658V99.3867C44.3658 88.2851 53.398 79.2529 64.5 79.2529C69.8803 79.2529 74.9373 81.3466 78.7389 85.1478C82.5401 88.9491 84.6338 94.006 84.6338 99.3867V103.113H83.7536C82.3893 103.113 81.2833 104.219 81.2833 105.583C81.2833 106.948 82.3893 108.054 83.7536 108.054H84.6338V175.03C84.6338 176.394 85.7398 177.5 87.1041 177.5H118.303C119.668 177.5 120.774 176.394 120.774 175.03V64.4686H125.55C126.915 64.4686 128.021 63.3627 128.021 61.9983C128.021 60.6339 126.915 59.528 125.55 59.528ZM50.0087 12.3115L61.6409 5.44063H67.3595L78.9912 12.3115V12.6616H50.0087V12.3115ZM33.599 17.6022H95.401V34.1012H33.599V17.6022ZM20.2753 39.0419H108.725V46.8146H20.2753V39.0419ZM14.1314 51.7552H114.868V59.528H14.1314V51.7552ZM13.1668 172.559V129.336H39.4255V172.559H13.1668ZM39.4255 124.396H13.1668V108.054H39.4255V124.396ZM82.2323 81.654C77.4977 76.9194 71.2002 74.3123 64.5 74.3123C50.6738 74.3123 39.4252 85.5606 39.4252 99.3867V103.113H13.1668V64.4698H115.833V103.113H89.5745V99.3867C89.5745 92.6861 86.9669 86.3887 82.2323 81.654ZM115.833 108.054V124.396H89.5741V108.054H115.833ZM89.5745 172.559V129.336H115.833V172.559H89.5745Z" fill="#E9FF92"/>
<path d="M26.2971 75.7496C21.7917 75.7496 18.1261 79.4152 18.1261 83.9207C18.1261 88.4262 21.7917 92.0917 26.2971 92.0917C30.8026 92.0917 34.4682 88.4262 34.4682 83.9207C34.4682 79.4152 30.8026 75.7496 26.2971 75.7496ZM26.2971 87.1511C24.5159 87.1511 23.0667 85.702 23.0667 83.9207C23.0667 82.1394 24.5159 80.6903 26.2971 80.6903C28.0784 80.6903 29.5276 82.1394 29.5276 83.9207C29.5276 85.702 28.078 87.1511 26.2971 87.1511Z" fill="#E9FF92"/>
<path d="M40.612 19.7711C37.2593 19.7711 34.5316 22.4987 34.5316 25.8515C34.5316 29.2043 37.2593 31.9319 40.612 31.9319C43.9648 31.9319 46.6924 29.2043 46.6924 25.8515C46.6924 22.4987 43.9648 19.7711 40.612 19.7711ZM40.612 26.9913C39.9838 26.9913 39.4723 26.4801 39.4723 25.8515C39.4723 25.2229 39.9838 24.7117 40.612 24.7117C41.2403 24.7117 41.7518 25.2229 41.7518 25.8515C41.7518 26.4801 41.2403 26.9913 40.612 26.9913Z" fill="#E9FF92"/>
<path d="M88.3883 19.7711C85.0355 19.7711 82.3079 22.4987 82.3079 25.8515C82.3079 29.2043 85.0355 31.9319 88.3883 31.9319C91.7411 31.9319 94.4687 29.2043 94.4687 25.8515C94.4687 22.4987 91.7411 19.7711 88.3883 19.7711ZM88.3883 26.9913C87.7601 26.9913 87.2486 26.4801 87.2486 25.8515C87.2486 25.2229 87.7601 24.7117 88.3883 24.7117C89.0165 24.7117 89.5281 25.2229 89.5281 25.8515C89.5281 26.4801 89.0165 26.9913 88.3883 26.9913Z" fill="#E9FF92"/>
<path d="M102.703 92.0917C107.208 92.0917 110.874 88.4262 110.874 83.9207C110.874 79.4152 107.208 75.7496 102.703 75.7496C98.1974 75.7496 94.5318 79.4152 94.5318 83.9207C94.5318 88.4262 98.197 92.0917 102.703 92.0917ZM102.703 80.6903C104.484 80.6903 105.933 82.1394 105.933 83.9207C105.933 85.702 104.484 87.1511 102.703 87.1511C100.922 87.1511 99.4724 85.702 99.4724 83.9207C99.4724 82.1394 100.922 80.6903 102.703 80.6903Z" fill="#E9FF92"/>
</svg>
