<svg width="177" height="176" viewBox="0 0 177 176" fill="none" xmlns="http://www.w3.org/2000/svg">
<g clip-path="url(#clip0_1038_7)">
<path d="M146.165 142.702L142.046 138.793C141.838 139.012 141.611 139.208 141.401 139.423L117.786 62.1397C120.77 58.2959 122.564 53.4875 122.564 48.2583C122.564 35.7366 112.376 25.5488 99.8542 25.5488V15.1249C100.609 15.2412 101.359 15.3211 102.113 15.46L103.15 9.87604C101.983 9.66024 100.819 9.52134 99.6521 9.3592C98.7042 4.05068 94.0771 0 88.4985 0C82.92 0 78.2946 4.05128 77.3468 9.35979C76.1802 9.52432 75.0159 9.66084 73.8493 9.87664L74.8854 15.4606C75.6407 15.3217 76.39 15.2418 77.1447 15.1255V25.5494C64.623 25.5494 54.4352 35.7372 54.4352 48.2589C54.4352 53.4875 56.2296 58.2965 59.2102 62.1373L35.5946 139.42C35.3848 139.205 35.1577 139.009 34.9502 138.79L30.831 142.699C31.7592 143.676 32.7469 144.601 33.7264 145.535L29.0086 160.978L28.8864 176L45.5243 163.521L47.764 156.192C48.3684 156.556 48.9592 156.956 49.5667 157.296L52.3458 152.345C51.3777 151.8 50.4299 151.181 49.4731 150.585L59.925 116.387H117.071L127.52 150.588C126.564 151.184 125.619 151.803 124.648 152.347L127.427 157.298C128.037 156.955 128.625 156.554 129.23 156.194L131.469 163.524L148.112 176V161.384L143.27 145.538C144.249 144.604 145.24 143.679 146.165 142.702ZM99.8548 31.2263C109.248 31.2263 116.887 38.8651 116.887 48.2583C116.887 53.7254 114.286 58.5886 110.27 61.7051C108.606 56.0819 104.822 51.3725 99.8434 48.4854C99.8434 48.4085 99.8548 48.3352 99.8548 48.2583C99.8548 42.1325 97.4047 36.5772 93.4476 32.4865C95.4291 31.6806 97.5895 31.2263 99.8548 31.2263ZM98.9123 54.6828C102.001 57.0786 104.243 60.5051 105.118 64.4479C103.46 64.9898 101.694 65.2908 99.8548 65.2908C97.5895 65.2908 95.4291 64.8366 93.4476 64.0306C95.9626 61.4303 97.8619 58.2398 98.9123 54.6828ZM88.4997 60.9188C85.8994 58.5826 84.0145 55.4714 83.2341 51.94C84.8943 51.3981 86.6601 51.097 88.4997 51.097C90.3394 51.097 92.1051 51.3981 93.7653 51.94C92.9844 55.4714 91.1 58.5826 88.4997 60.9188ZM88.4997 45.4195C86.5891 45.4195 84.7441 45.6836 82.9701 46.1289C83.4923 41.965 85.5251 38.272 88.4997 35.5977C91.4744 38.269 93.5072 41.962 94.0294 46.1265C92.2553 45.6836 90.4103 45.4195 88.4997 45.4195ZM83.5519 64.0306C81.5703 64.8366 79.41 65.2908 77.1447 65.2908C75.305 65.2908 73.5393 64.9898 71.8791 64.4479C72.7536 60.5051 74.9963 57.0786 78.0848 54.6828C79.1375 58.2392 81.0368 61.4303 83.5519 64.0306ZM77.1447 70.9678C81.2836 70.9678 85.1555 69.8381 88.4997 67.8965C91.844 69.8381 95.7159 70.9678 99.8548 70.9678C101.765 70.9678 103.61 70.7037 105.384 70.2584C104.331 78.6471 97.1692 85.1615 88.4997 85.1615C79.8303 85.1615 72.6684 78.6465 71.615 70.2584C73.3891 70.7043 75.2341 70.9678 77.1447 70.9678ZM82.8222 11.3556C82.8222 8.22477 85.3683 5.67811 88.4997 5.67811C91.6312 5.67811 94.1772 8.22417 94.1772 11.3556V26.2958C92.1617 26.818 90.2571 27.6013 88.4997 28.6207C86.7423 27.5989 84.8377 26.818 82.8222 26.2958V11.3556ZM77.1447 31.2263C79.41 31.2263 81.5703 31.6806 83.5519 32.4865C79.5948 36.5772 77.1447 42.1325 77.1447 48.2583C77.1447 48.3352 77.156 48.4085 77.156 48.4854C72.1772 51.3725 68.393 56.0819 66.7298 61.7051C62.7131 58.588 60.1127 53.7254 60.1127 48.2583C60.1127 38.8651 67.7515 31.2263 77.1447 31.2263ZM40.6367 160.089L34.5645 164.645V162.229L63.7891 66.582C64.4365 67.056 65.1065 67.4959 65.8016 67.8995C65.8016 67.9788 65.7903 68.0527 65.7903 68.1296C65.7903 70.3889 66.1336 72.5666 66.75 74.6274L40.6367 160.089ZM61.6627 110.71L70.4711 81.8828C74.6243 87.3136 81.1501 90.8391 88.4997 90.8391C95.8494 90.8391 102.375 87.3136 106.528 81.8828L115.337 110.71H61.6627ZM142.436 164.645L136.363 160.092L110.25 74.6298C110.866 72.566 111.21 70.3889 111.21 68.129C111.21 68.0521 111.198 67.9788 111.198 67.9019C111.894 67.4989 112.564 67.056 113.211 66.5844L142.436 162.229V164.645Z" fill="#E9FF92"/>
<path d="M124.673 17.2173C121.315 15.5029 117.801 14.0096 114.233 12.7863L112.396 18.1598C115.709 19.2924 118.971 20.6778 122.09 22.2731L124.673 17.2173Z" fill="#E9FF92"/>
<path d="M157.213 48.0288C155.314 44.7757 153.163 41.6216 150.815 38.6613L146.367 42.1868C148.55 44.9403 150.548 47.8672 152.311 50.8872L157.213 48.0288Z" fill="#E9FF92"/>
<path d="M143.147 30.2922C140.402 27.6949 137.453 25.2734 134.376 23.0988L131.097 27.7342C133.953 29.7551 136.695 32.0037 139.244 34.4168L143.147 30.2922Z" fill="#E9FF92"/>
<path d="M160.188 70.3746L165.701 69.0262C164.804 65.3558 163.629 61.7224 162.213 58.2166L156.949 60.3454C158.266 63.599 159.357 66.9743 160.188 70.3746Z" fill="#E9FF92"/>
<path d="M167.606 80.2137L161.957 80.7615C162.187 83.1574 162.306 85.5902 162.306 88.0003C162.306 89.1073 162.284 90.206 162.235 91.3017L167.907 91.5514C167.958 90.3735 167.984 89.1896 167.984 88.0003C167.983 85.4083 167.859 82.7884 167.606 80.2137Z" fill="#E9FF92"/>
<path d="M158.335 111.953L163.706 113.793C164.932 110.222 165.906 106.528 166.607 102.821L161.026 101.768C160.375 105.211 159.47 108.638 158.335 111.953Z" fill="#E9FF92"/>
<path d="M148.74 130.654L153.372 133.936C155.56 130.851 157.542 127.589 159.259 124.239L154.21 121.645C152.612 124.759 150.772 127.791 148.74 130.654Z" fill="#E9FF92"/>
<path d="M104.544 160.055L105.776 165.599C109.56 164.756 113.302 163.632 116.901 162.249L114.866 156.95C111.528 158.23 108.056 159.274 104.544 160.055Z" fill="#E9FF92"/>
<path d="M88.4968 161.807C86.6911 161.764 84.8914 161.744 83.0917 161.614L82.6774 167.274C84.579 167.416 86.5009 167.484 88.3889 167.484C90.4443 167.521 92.3489 167.418 94.2846 167.276L93.8756 161.616C92.1105 161.744 90.2994 161.807 88.4968 161.807Z" fill="#E9FF92"/>
<path d="M60.0674 162.238C63.6841 163.626 67.4254 164.753 71.1894 165.587L72.4186 160.043C68.9271 159.271 65.4552 158.224 62.1026 156.938L60.0674 162.238Z" fill="#E9FF92"/>
<path d="M64.6916 18.1312L62.8609 12.7577C59.2871 13.9726 55.767 15.4599 52.403 17.1804L54.986 22.2361C58.1085 20.6409 61.3729 19.2614 64.6916 18.1312Z" fill="#E9FF92"/>
<path d="M30.6837 42.1295L26.2384 38.598C23.8849 41.5614 21.7275 44.7125 19.8312 47.9602L24.7338 50.8276C26.4942 47.807 28.4983 44.883 30.6837 42.1295Z" fill="#E9FF92"/>
<path d="M17.7025 124.166C19.4199 127.521 21.3984 130.783 23.5815 133.871L28.2169 130.589C26.1871 127.725 24.3505 124.694 22.7582 121.577L17.7025 124.166Z" fill="#E9FF92"/>
<path d="M15.9594 101.689L10.3784 102.736C11.0765 106.452 12.0476 110.142 13.2684 113.713L18.6419 111.879C17.5069 108.567 16.6038 105.138 15.9594 101.689Z" fill="#E9FF92"/>
<path d="M14.6938 87.9973C14.6938 85.5592 14.813 83.0918 15.0515 80.6763L9.40259 80.1171C9.14446 82.7228 9.0163 85.3744 9.0163 88.0003C9.0163 89.1586 9.04193 90.3109 9.09022 91.4638L14.7618 91.214C14.7165 90.1464 14.6938 89.0763 14.6938 87.9973Z" fill="#E9FF92"/>
<path d="M45.9672 27.6865L42.6915 23.051C39.6143 25.2227 36.6593 27.6382 33.9111 30.2332L37.8086 34.3637C40.3636 31.953 43.1088 29.7074 45.9672 27.6865Z" fill="#E9FF92"/>
<path d="M20.0786 60.2721L14.8184 58.1373C13.402 61.6288 12.2241 65.2622 11.3185 68.9332L16.8285 70.293C17.6715 66.8891 18.7642 63.5168 20.0786 60.2721Z" fill="#E9FF92"/>
</g>
<defs>
<clipPath id="clip0_1038_7">
<rect width="176" height="176" fill="white" transform="translate(0.5)"/>
</clipPath>
</defs>
</svg>
