<svg width="177" height="178" viewBox="0 0 177 178" fill="none" xmlns="http://www.w3.org/2000/svg">
<path d="M166.225 114.812C157.377 105.965 144.541 102.251 132.37 104.917L120.436 92.9829L156.893 56.5254C156.897 56.5216 172.857 40.5612 172.857 40.5612C175.513 37.9051 176.976 34.3613 176.976 30.5838C176.976 26.8056 175.513 23.2622 172.857 20.6061L156.895 4.64399C154.239 1.98796 150.695 0.52494 146.918 0.52494C143.139 0.52494 139.596 1.98761 136.939 4.64434L84.5182 57.065L72.5842 45.131C75.2513 32.9609 71.5367 20.1235 62.6891 11.2763C52.7674 1.35463 38.3336 -2.03084 25.0206 2.44117C24.0941 2.75265 23.3944 3.5208 23.1707 4.47218C22.9471 5.4239 23.2316 6.42333 23.923 7.11439L43.3553 26.5467L39.7465 40.2442L26.048 43.8481L6.61605 24.4165C5.92464 23.7251 4.92521 23.4406 3.97418 23.6642C3.02281 23.8876 2.25431 24.5869 1.94249 25.5134C-2.53299 38.8289 0.851792 53.2651 10.7755 63.1888C19.6231 72.0361 32.4605 75.7506 44.6303 73.0839L50.5746 79.0279C51.1257 79.579 51.8485 79.8552 52.5711 79.8552C53.2936 79.8552 54.0164 79.5797 54.5675 79.0279C55.6703 77.9251 55.6703 76.1371 54.5675 75.0347L47.5024 67.9696C46.7902 67.2567 45.7524 66.9777 44.7772 67.2381C34.0839 70.0932 22.5851 67.012 14.7688 59.1956C7.50381 51.9307 4.38108 41.8067 6.12376 31.9106L23.2012 48.988C23.9112 49.6981 24.9452 49.9774 25.916 49.7223L42.7752 45.2869C43.7594 45.028 44.5283 44.2595 44.7872 43.2753L49.0345 27.1541L59.7759 16.4128C66.7878 24.1811 69.4566 35.0928 66.7373 45.2776C66.477 46.2514 66.7559 47.2899 67.4688 48.0028L80.5239 61.0579L16.8136 124.77C16.7389 124.844 16.6705 124.922 16.6058 125.003C16.5896 125.023 16.5754 125.045 16.5595 125.066C16.5121 125.129 16.4665 125.192 16.4247 125.258C16.4088 125.283 16.3946 125.308 16.3797 125.334C16.3414 125.398 16.3054 125.464 16.2733 125.531C16.2601 125.559 16.2473 125.586 16.2349 125.614C16.2045 125.683 16.1765 125.752 16.1516 125.823C16.1457 125.84 16.1371 125.857 16.1312 125.874L0.169028 173.76C-0.169069 174.774 0.094702 175.893 0.8511 176.649C1.38936 177.188 2.11084 177.477 2.84788 177.477C3.14657 177.477 3.44802 177.429 3.74049 177.332L51.6273 161.37C51.6449 161.364 51.6615 161.355 51.6791 161.349C51.7493 161.324 51.8181 161.297 51.8862 161.266C51.9146 161.253 51.9419 161.241 51.9699 161.227C52.0366 161.195 52.1019 161.159 52.1662 161.121C52.1918 161.106 52.2174 161.092 52.2426 161.076C52.308 161.034 52.3719 160.989 52.4342 160.941C52.4552 160.925 52.477 160.911 52.4974 160.895C52.578 160.83 52.6564 160.761 52.7308 160.687L116.442 96.9754L129.498 110.031C130.211 110.744 131.25 111.022 132.223 110.762C142.917 107.907 154.415 110.989 162.231 118.805C169.494 126.067 172.617 136.188 170.877 146.082L153.8 129.004C153.09 128.294 152.055 128.015 151.084 128.271L134.225 132.712C133.241 132.971 132.472 133.74 132.213 134.724L127.972 150.845L117.227 161.59C110.213 153.822 107.543 142.909 110.262 132.723C110.522 131.749 110.244 130.711 109.531 129.998L102.465 122.932C101.362 121.829 99.5746 121.829 98.4718 122.932C97.369 124.035 97.369 125.823 98.4718 126.925L104.416 132.87C101.749 145.04 105.464 157.878 114.311 166.725C114.542 166.956 114.775 167.182 115.012 167.406C115.07 167.477 115.132 167.546 115.198 167.612C115.31 167.725 115.431 167.822 115.556 167.911C122.417 174.173 131.182 177.5 140.182 177.5C144.118 177.5 148.101 176.863 151.987 175.557C152.913 175.245 153.613 174.477 153.836 173.525C154.059 172.574 153.775 171.574 153.084 170.883L133.652 151.451L137.256 137.753L150.954 134.144L170.386 153.576C171.078 154.268 172.079 154.553 173.029 154.329C173.98 154.105 174.748 153.406 175.06 152.478C179.531 139.167 176.146 124.733 166.225 114.812ZM46.4988 21.7044L31.4182 6.62314C39.9864 5.11588 48.7227 7.25889 55.6271 12.5762L46.4988 21.7044ZM140.933 8.63687C142.522 7.04732 144.648 6.172 146.918 6.172C149.187 6.172 151.313 7.04732 152.902 8.63687L168.864 24.599C172.164 27.8991 172.164 33.2682 168.864 36.568L154.898 50.5333L126.967 22.6022L140.933 8.63687ZM7.31264 170.188L12.0633 155.937L21.5642 165.438L7.31264 170.188ZM27.5542 163.441L14.0597 149.947L20.0442 131.993L45.5073 157.457L27.5542 163.441ZM50.7343 154.697L22.8029 126.766L112.332 37.2372L124.301 49.2058L40.7566 132.751C39.6539 133.854 39.6539 135.642 40.7566 136.744C41.3077 137.295 42.0306 137.571 42.7531 137.571C43.4756 137.571 44.1985 137.296 44.7495 136.744L128.294 53.2001L134.278 59.1842C134.83 59.7353 135.553 60.0115 136.275 60.0115C136.998 60.0115 137.721 59.7359 138.272 59.1842C139.375 58.0814 139.375 56.2934 138.272 55.191L130.291 47.2104C130.29 47.2094 116.325 33.244 116.325 33.244L122.973 26.5958L150.904 54.5269L50.7343 154.697ZM145.59 171.377C137.022 172.885 128.284 170.744 121.377 165.428L130.509 156.296L145.59 171.377Z" fill="#E9FF92"/>
</svg>
