<svg width="177" height="176" viewBox="0 0 177 176" fill="none" xmlns="http://www.w3.org/2000/svg">
<g clip-path="url(#clip0_588_275)">
<path d="M146.165 142.702L142.046 138.793C141.839 139.012 141.611 139.208 141.402 139.423L117.787 62.1397C120.77 58.2959 122.564 53.4875 122.564 48.2583C122.564 35.7366 112.376 25.5488 99.8545 25.5488V15.1249C100.61 15.2412 101.359 15.3211 102.114 15.46L103.15 9.87604C101.983 9.66024 100.819 9.52134 99.6524 9.3592C98.7045 4.05068 94.0774 0 88.4988 0C82.9203 0 78.2949 4.05128 77.3471 9.35979C76.1805 9.52432 75.0162 9.66084 73.8496 9.87664L74.8857 15.4606C75.641 15.3217 76.3903 15.2418 77.145 15.1255V25.5494C64.6234 25.5494 54.4355 35.7372 54.4355 48.2589C54.4355 53.4875 56.2299 58.2965 59.2105 62.1373L35.5949 139.42C35.3851 139.205 35.158 139.009 34.9505 138.79L30.8313 142.699C31.7595 143.676 32.7472 144.601 33.7267 145.535L29.0089 160.978L28.8867 176L45.5246 163.521L47.7643 156.192C48.3688 156.556 48.9595 156.956 49.567 157.296L52.3461 152.345C51.378 151.8 50.4302 151.181 49.4734 150.585L59.9253 116.387H117.071L127.521 150.588C126.564 151.184 125.619 151.803 124.648 152.347L127.427 157.298C128.038 156.955 128.625 156.554 129.23 156.194L131.469 163.524L148.113 176V161.384L143.27 145.538C144.249 144.604 145.24 143.679 146.165 142.702ZM99.8551 31.2263C109.248 31.2263 116.887 38.8651 116.887 48.2583C116.887 53.7254 114.287 58.5886 110.27 61.7051C108.607 56.0819 104.823 51.3725 99.8437 48.4854C99.8437 48.4085 99.8551 48.3352 99.8551 48.2583C99.8551 42.1325 97.405 36.5772 93.4479 32.4865C95.4294 31.6806 97.5898 31.2263 99.8551 31.2263ZM98.9126 54.6828C102.001 57.0786 104.244 60.5051 105.118 64.4479C103.46 64.9898 101.694 65.2908 99.8551 65.2908C97.5898 65.2908 95.4294 64.8366 93.4479 64.0306C95.963 61.4303 97.8622 58.2398 98.9126 54.6828ZM88.5 60.9188C85.8997 58.5826 84.0148 55.4714 83.2344 51.94C84.8947 51.3981 86.6604 51.097 88.5 51.097C90.3397 51.097 92.1054 51.3981 93.7656 51.94C92.9847 55.4714 91.1003 58.5826 88.5 60.9188ZM88.5 45.4195C86.5894 45.4195 84.7444 45.6836 82.9704 46.1289C83.4926 41.965 85.5254 38.272 88.5 35.5977C91.4747 38.269 93.5075 41.962 94.0297 46.1265C92.2556 45.6836 90.4106 45.4195 88.5 45.4195ZM83.5522 64.0306C81.5707 64.8366 79.4103 65.2908 77.145 65.2908C75.3054 65.2908 73.5396 64.9898 71.8794 64.4479C72.7539 60.5051 74.9966 57.0786 78.0851 54.6828C79.1379 58.2392 81.0371 61.4303 83.5522 64.0306ZM77.145 70.9678C81.2839 70.9678 85.1558 69.8381 88.5 67.8965C91.8443 69.8381 95.7162 70.9678 99.8551 70.9678C101.766 70.9678 103.611 70.7037 105.385 70.2584C104.331 78.6471 97.1695 85.1615 88.5 85.1615C79.8306 85.1615 72.6687 78.6465 71.6153 70.2584C73.3894 70.7043 75.2344 70.9678 77.145 70.9678ZM82.8225 11.3556C82.8225 8.22477 85.3686 5.67811 88.5 5.67811C91.6315 5.67811 94.1776 8.22417 94.1776 11.3556V26.2958C92.162 26.818 90.2574 27.6013 88.5 28.6207C86.7427 27.5989 84.838 26.818 82.8225 26.2958V11.3556ZM77.145 31.2263C79.4103 31.2263 81.5707 31.6806 83.5522 32.4865C79.5951 36.5772 77.145 42.1325 77.145 48.2583C77.145 48.3352 77.1563 48.4085 77.1563 48.4854C72.1775 51.3725 68.3933 56.0819 66.7301 61.7051C62.7134 58.588 60.1131 53.7254 60.1131 48.2583C60.1131 38.8651 67.7518 31.2263 77.145 31.2263ZM40.637 160.089L34.5648 164.645V162.229L63.7894 66.582C64.4368 67.056 65.1068 67.4959 65.8019 67.8995C65.8019 67.9788 65.7906 68.0527 65.7906 68.1296C65.7906 70.3889 66.1339 72.5666 66.7503 74.6274L40.637 160.089ZM61.663 110.71L70.4714 81.8828C74.6246 87.3136 81.1504 90.8391 88.5 90.8391C95.8497 90.8391 102.375 87.3136 106.529 81.8828L115.337 110.71H61.663ZM142.436 164.645L136.363 160.092L110.25 74.6298C110.866 72.566 111.21 70.3889 111.21 68.129C111.21 68.0521 111.199 67.9788 111.199 67.9019C111.894 67.4989 112.564 67.056 113.211 66.5844L142.436 162.229V164.645Z" fill="black"/>
<path d="M124.672 17.2173C121.314 15.5029 117.799 14.0096 114.231 12.7863L112.395 18.1598C115.707 19.2925 118.969 20.6779 122.089 22.2731L124.672 17.2173Z" fill="black"/>
<path d="M157.214 48.0288C155.314 44.7757 153.163 41.6216 150.815 38.6612L146.367 42.1867C148.55 44.9402 150.548 47.8672 152.311 50.8872L157.214 48.0288Z" fill="black"/>
<path d="M143.148 30.2922C140.403 27.6949 137.454 25.2734 134.376 23.0987L131.098 27.7342C133.953 29.7551 136.695 32.0037 139.245 34.4168L143.148 30.2922Z" fill="black"/>
<path d="M160.188 70.3746L165.701 69.0262C164.804 65.3558 163.629 61.7224 162.212 58.2166L156.949 60.3454C158.266 63.599 159.356 66.9743 160.188 70.3746Z" fill="black"/>
<path d="M167.606 80.2137L161.957 80.7615C162.187 83.1574 162.306 85.5902 162.306 88.0003C162.306 89.1073 162.284 90.206 162.235 91.3017L167.907 91.5514C167.958 90.3735 167.984 89.1896 167.984 88.0003C167.983 85.4083 167.859 82.7884 167.606 80.2137Z" fill="black"/>
<path d="M158.336 111.953L163.707 113.793C164.933 110.222 165.907 106.529 166.608 102.821L161.027 101.768C160.376 105.211 159.471 108.638 158.336 111.953Z" fill="black"/>
<path d="M148.738 130.654L153.371 133.936C155.559 130.851 157.541 127.589 159.258 124.239L154.208 121.645C152.611 124.759 150.771 127.791 148.738 130.654Z" fill="black"/>
<path d="M104.543 160.055L105.775 165.599C109.559 164.756 113.301 163.632 116.9 162.249L114.865 156.95C111.527 158.23 108.055 159.274 104.543 160.055Z" fill="black"/>
<path d="M88.4952 161.807C86.6895 161.764 84.8898 161.744 83.0901 161.614L82.6758 167.274C84.5774 167.416 86.4993 167.484 88.3873 167.484C90.4427 167.521 92.3473 167.418 94.283 167.276L93.874 161.616C92.1089 161.744 90.2979 161.807 88.4952 161.807Z" fill="black"/>
<path d="M60.0664 162.238C63.6831 163.626 67.4244 164.753 71.1884 165.587L72.4176 160.043C68.926 159.271 65.4542 158.224 62.1016 156.938L60.0664 162.238Z" fill="black"/>
<path d="M64.6909 18.1312L62.8602 12.7577C59.2864 13.9726 55.7663 15.46 52.4023 17.1804L54.9854 22.2361C58.1079 20.6409 61.3723 19.2615 64.6909 18.1312Z" fill="black"/>
<path d="M30.6845 42.1295L26.2392 38.598C23.8857 41.5614 21.7283 44.7125 19.832 47.9602L24.7346 50.8276C26.4949 47.807 28.4991 44.883 30.6845 42.1295Z" fill="black"/>
<path d="M17.7031 124.166C19.4206 127.521 21.3991 130.783 23.5821 133.871L28.2176 130.589C26.1878 127.725 24.3511 124.694 22.7589 121.577L17.7031 124.166Z" fill="black"/>
<path d="M15.9598 101.689L10.3789 102.736C11.077 106.452 12.0481 110.142 13.2689 113.713L18.6424 111.879C17.5074 108.567 16.6043 105.138 15.9598 101.689Z" fill="black"/>
<path d="M14.6931 87.9973C14.6931 85.5592 14.8124 83.0918 15.0508 80.6763L9.40192 80.1171C9.14379 82.7228 9.01562 85.3744 9.01562 88.0003C9.01562 89.1586 9.04126 90.3109 9.08954 91.4638L14.7611 91.214C14.7158 90.1464 14.6931 89.0763 14.6931 87.9973Z" fill="black"/>
<path d="M45.9662 27.6865L42.6905 23.051C39.6133 25.2227 36.6583 27.6382 33.9102 30.2332L37.8076 34.3637C40.3626 31.953 43.1078 29.7074 45.9662 27.6865Z" fill="black"/>
<path d="M20.0765 60.272L14.8163 58.1373C13.3999 61.6288 12.2219 65.2622 11.3164 68.9332L16.8264 70.2929C17.6693 66.889 18.762 63.5168 20.0765 60.272Z" fill="black"/>
</g>
<defs>
<clipPath id="clip0_588_275">
<rect width="176" height="176" fill="white" transform="translate(0.5)"/>
</clipPath>
</defs>
</svg>
