<svg width="177" height="178" viewBox="0 0 177 178" fill="none" xmlns="http://www.w3.org/2000/svg">
<path d="M166.225 114.812C157.378 105.965 144.541 102.251 132.37 104.917L120.436 92.9829L156.893 56.5254C156.897 56.5216 172.857 40.5612 172.857 40.5612C175.513 37.9052 176.976 34.3613 176.976 30.5838C176.976 26.8057 175.513 23.2622 172.857 20.6062L156.896 4.64401C154.239 1.98797 150.695 0.524955 146.918 0.524955C143.14 0.524955 139.596 1.98763 136.94 4.64435L84.5185 57.0651L72.5845 45.131C75.2516 32.9609 71.537 20.1236 62.6894 11.2763C52.7677 1.35464 38.334 -2.03083 25.0209 2.44119C24.0944 2.75267 23.3947 3.52082 23.1711 4.47219C22.9474 5.42392 23.2319 6.42334 23.9233 7.1144L43.3556 26.5467L39.7468 40.2442L26.0484 43.8481L6.61638 24.4165C5.92498 23.7251 4.92555 23.4406 3.97452 23.6643C3.02314 23.8876 2.25465 24.5869 1.94282 25.5134C-2.53265 38.8289 0.852128 53.2651 10.7759 63.1888C19.6235 72.0361 32.4608 75.7507 44.6306 73.0839L50.575 79.0279C51.126 79.579 51.8489 79.8552 52.5714 79.8552C53.2939 79.8552 54.0168 79.5797 54.5678 79.0279C55.6706 77.9251 55.6706 76.1372 54.5678 75.0347L47.5027 67.9696C46.7905 67.2567 45.7527 66.9778 44.7775 67.2381C34.0842 70.0932 22.5854 67.012 14.7691 59.1956C7.50415 51.9307 4.38141 41.8068 6.1241 31.9107L23.2015 48.988C23.9116 49.6981 24.9456 49.9774 25.9163 49.7223L42.7755 45.2869C43.7598 45.028 44.5286 44.2595 44.7875 43.2753L49.0348 27.1541L59.7762 16.4128C66.7881 24.1811 69.4569 35.0929 66.7376 45.2776C66.4773 46.2515 66.7563 47.29 67.4691 48.0028L80.5243 61.0579L16.8139 124.77C16.7393 124.844 16.6708 124.922 16.6062 125.003C16.5899 125.023 16.5757 125.045 16.5598 125.066C16.5125 125.129 16.4668 125.192 16.425 125.258C16.4091 125.283 16.3949 125.308 16.3801 125.334C16.3417 125.398 16.3057 125.464 16.2736 125.531C16.2605 125.559 16.2477 125.586 16.2352 125.614C16.2048 125.683 16.1768 125.752 16.1519 125.823C16.146 125.84 16.1374 125.857 16.1315 125.874L0.169364 173.76C-0.168734 174.774 0.0950377 175.893 0.851436 176.649C1.3897 177.188 2.11118 177.477 2.84822 177.477C3.1469 177.477 3.44836 177.429 3.74082 177.332L51.6276 161.37C51.6453 161.364 51.6618 161.355 51.6795 161.349C51.7497 161.324 51.8185 161.297 51.8866 161.266C51.9149 161.253 51.9422 161.241 51.9702 161.227C52.0369 161.195 52.1023 161.159 52.1666 161.121C52.1922 161.106 52.2177 161.092 52.243 161.076C52.3083 161.034 52.3723 160.989 52.4345 160.941C52.4556 160.925 52.4774 160.911 52.4978 160.895C52.5783 160.83 52.6568 160.761 52.7311 160.687L116.443 96.9755L129.498 110.031C130.212 110.744 131.25 111.022 132.223 110.762C142.917 107.907 154.416 110.989 162.232 118.805C169.494 126.067 172.617 136.188 170.878 146.082L153.801 129.005C153.09 128.294 152.055 128.015 151.084 128.271L134.225 132.712C133.241 132.971 132.473 133.74 132.214 134.724L127.973 150.845L117.227 161.59C110.213 153.822 107.543 142.909 110.263 132.723C110.522 131.749 110.244 130.711 109.532 129.998L102.466 122.932C101.363 121.829 99.5749 121.829 98.4721 122.932C97.3693 124.035 97.3693 125.823 98.4721 126.925L104.416 132.87C101.749 145.04 105.464 157.878 114.311 166.725C114.542 166.956 114.776 167.182 115.012 167.406C115.07 167.477 115.132 167.546 115.198 167.612C115.311 167.725 115.431 167.822 115.556 167.911C122.417 174.173 131.183 177.5 140.183 177.5C144.119 177.5 148.101 176.863 151.987 175.557C152.914 175.245 153.613 174.477 153.836 173.525C154.06 172.574 153.775 171.574 153.084 170.883L133.652 151.451L137.256 137.753L150.954 134.144L170.386 153.576C171.078 154.268 172.079 154.553 173.029 154.329C173.98 154.105 174.749 153.406 175.06 152.478C179.532 139.167 176.146 124.733 166.225 114.812ZM46.4991 21.7045L31.4185 6.62316C39.9868 5.11589 48.723 7.25891 55.6274 12.5762L46.4991 21.7045ZM140.933 8.63688C142.523 7.04734 144.648 6.17202 146.918 6.17202C149.187 6.17202 151.313 7.04734 152.902 8.63688L168.864 24.599C172.164 27.8991 172.164 33.2682 168.864 36.568L154.899 50.5333L126.968 22.6023L140.933 8.63688ZM7.31297 170.188L12.0636 155.937L21.5646 165.438L7.31297 170.188ZM27.5546 163.441L14.0601 149.947L20.0445 131.993L45.5076 157.457L27.5546 163.441ZM50.7347 154.698L22.8032 126.766L112.332 37.2373L124.302 49.2058L40.757 132.751C39.6542 133.854 39.6542 135.642 40.757 136.744C41.308 137.295 42.0309 137.571 42.7534 137.571C43.4759 137.571 44.1988 137.296 44.7499 136.744L128.294 53.2001L134.279 59.1842C134.83 59.7353 135.553 60.0115 136.275 60.0115C136.998 60.0115 137.721 59.736 138.272 59.1842C139.375 58.0814 139.375 56.2934 138.272 55.191L130.292 47.2104C130.291 47.2094 116.325 33.244 116.325 33.244L122.973 26.5958L150.905 54.5269L50.7347 154.698ZM145.59 171.377C137.022 172.885 128.284 170.744 121.378 165.428L130.509 156.296L145.59 171.377Z" fill="black"/>
</svg>
