<svg width="177" height="178" viewBox="0 0 177 178" fill="none" xmlns="http://www.w3.org/2000/svg">
<g clip-path="url(#clip0_588_323)">
<path d="M149.549 59.528H143.808V49.2849C143.808 47.9206 142.702 46.8146 141.338 46.8146H137.665V36.5715C137.665 35.2072 136.559 34.1012 135.194 34.1012H124.341V15.1319C124.341 13.7675 123.235 12.6616 121.87 12.6616H107.931V10.9019C107.931 10.0282 107.469 9.21945 106.717 8.77518L93.2899 0.843564C92.9095 0.618575 92.4755 0.5 92.0335 0.5H84.9646C84.5226 0.5 84.0886 0.618575 83.7082 0.843564L70.2811 8.77518C69.5289 9.21945 69.0672 10.0282 69.0672 10.9019V12.6616H55.1274C53.763 12.6616 52.6571 13.7675 52.6571 15.1319V34.1012H41.8036C40.4393 34.1012 39.3333 35.2072 39.3333 36.5715V46.8146H35.6598C34.2954 46.8146 33.1895 47.9206 33.1895 49.2849V59.528H27.4488C26.0845 59.528 24.9785 60.6339 24.9785 61.9983C24.9785 63.3627 26.0845 64.4686 27.4488 64.4686H32.2249V175.03C32.2249 176.394 33.3308 177.5 34.6952 177.5H65.8945C67.2589 177.5 68.3649 176.394 68.3649 175.03V108.054H69.2454C70.6098 108.054 71.7157 106.948 71.7157 105.583C71.7157 104.219 70.6098 103.113 69.2454 103.113H68.3649V99.3867C68.3649 88.2851 77.3971 79.2529 88.4991 79.2529C93.8794 79.2529 98.9363 81.3466 102.738 85.1478C106.539 88.9491 108.633 94.006 108.633 99.3867V103.113H107.753C106.388 103.113 105.282 104.219 105.282 105.583C105.282 106.948 106.388 108.054 107.753 108.054H108.633V175.03C108.633 176.394 109.739 177.5 111.103 177.5H142.303C143.667 177.5 144.773 176.394 144.773 175.03V64.4686H149.549C150.914 64.4686 152.02 63.3627 152.02 61.9983C152.02 60.6339 150.914 59.528 149.549 59.528ZM74.0078 12.3115L85.64 5.44063H91.3586L102.99 12.3115V12.6616H74.0078V12.3115ZM57.5981 17.6022H119.4V34.1012H57.5981V17.6022ZM44.2743 39.0419H132.724V46.8146H44.2743V39.0419ZM38.1305 51.7552H138.867V59.528H38.1305V51.7552ZM37.1659 172.559V129.336H63.4246V172.559H37.1659ZM63.4246 124.396H37.1659V108.054H63.4246V124.396ZM106.231 81.654C101.497 76.9194 95.1993 74.3123 88.4991 74.3123C74.6729 74.3123 63.4242 85.5606 63.4242 99.3867V103.113H37.1659V64.4698H139.832V103.113H113.574V99.3867C113.574 92.6861 110.966 86.3887 106.231 81.654ZM139.832 108.054V124.396H113.573V108.054H139.832ZM113.574 172.559V129.336H139.832V172.559H113.574Z" fill="black"/>
<path d="M50.296 75.7496C45.7906 75.7496 42.125 79.4152 42.125 83.9206C42.125 88.4261 45.7906 92.0917 50.296 92.0917C54.8015 92.0917 58.4671 88.4261 58.4671 83.9206C58.4671 79.4152 54.8015 75.7496 50.296 75.7496ZM50.296 87.1511C48.5148 87.1511 47.0656 85.7019 47.0656 83.9206C47.0656 82.1394 48.5148 80.6902 50.296 80.6902C52.0773 80.6902 53.5265 82.1394 53.5265 83.9206C53.5265 85.7019 52.0769 87.1511 50.296 87.1511Z" fill="black"/>
<path d="M64.6116 19.7711C61.2589 19.7711 58.5312 22.4987 58.5312 25.8515C58.5312 29.2043 61.2589 31.9319 64.6116 31.9319C67.9644 31.9319 70.692 29.2043 70.692 25.8515C70.692 22.4987 67.9644 19.7711 64.6116 19.7711ZM64.6116 26.9913C63.9834 26.9913 63.4719 26.4801 63.4719 25.8515C63.4719 25.2229 63.9834 24.7117 64.6116 24.7117C65.2399 24.7117 65.7514 25.2229 65.7514 25.8515C65.7514 26.4801 65.2399 26.9913 64.6116 26.9913Z" fill="black"/>
<path d="M112.387 19.7711C109.034 19.7711 106.307 22.4987 106.307 25.8515C106.307 29.2043 109.034 31.9319 112.387 31.9319C115.74 31.9319 118.467 29.2043 118.467 25.8515C118.467 22.4987 115.74 19.7711 112.387 19.7711ZM112.387 26.9913C111.759 26.9913 111.247 26.4801 111.247 25.8515C111.247 25.2229 111.759 24.7117 112.387 24.7117C113.015 24.7117 113.527 25.2229 113.527 25.8515C113.527 26.4801 113.015 26.9913 112.387 26.9913Z" fill="black"/>
<path d="M126.702 92.0917C131.208 92.0917 134.873 88.4261 134.873 83.9206C134.873 79.4152 131.208 75.7496 126.702 75.7496C122.197 75.7496 118.531 79.4152 118.531 83.9206C118.531 88.4261 122.196 92.0917 126.702 92.0917ZM126.702 80.6902C128.484 80.6902 129.933 82.1394 129.933 83.9206C129.933 85.7019 128.484 87.1511 126.702 87.1511C124.921 87.1511 123.472 85.7019 123.472 83.9206C123.472 82.1394 124.921 80.6902 126.702 80.6902Z" fill="black"/>
</g>
<defs>
<clipPath id="clip0_588_323">
<rect width="177" height="177" fill="white" transform="translate(0 0.5)"/>
</clipPath>
</defs>
</svg>
